<svg xmlns="http://www.w3.org/2000/svg" width="180" height="40" viewBox="0 0 180 40">
  <g id="Group_1823" data-name="Group 1823" transform="translate(0 0)">
    <path id="Path_15810" data-name="Path 15810" d="M59.634,104.449,40.884,85.7a1.25,1.25,0,0,0-1.768,1.768l16.616,16.616H1.25a1.25,1.25,0,1,0,0,2.5H55.732L39.116,123.2a1.25,1.25,0,1,0,1.768,1.768l18.75-18.75A1.25,1.25,0,0,0,59.634,104.449Z" transform="translate(120 -85.333)" fill="#0c2533"/>
    <path id="Path_15811" data-name="Path 15811" d="M.366,104.449,19.116,85.7a1.25,1.25,0,1,1,1.768,1.768L4.268,104.083H58.75a1.25,1.25,0,1,1,0,2.5H4.268L20.884,123.2a1.25,1.25,0,1,1-1.768,1.768L.366,106.217A1.25,1.25,0,0,1,.366,104.449Z" transform="translate(0 -85.333)" fill="#0c2533"/>
  </g>
</svg>
